<svg width="176" height="50" viewBox="0 0 176 50" fill="none" xmlns="http://www.w3.org/2000/svg">
<g clip-path="url(#clip0_1_200)">
<path d="M44.9556 33.5208L42.6849 17.5625C42.1016 13.4583 38.581 10.4166 34.4354 10.4166H15.5614C11.4158 10.4166 7.8952 13.4583 7.3119 17.5625L5.04119 33.5208C4.58288 36.7291 7.06191 39.5833 10.2909 39.5833C11.7075 39.5833 13.0407 39.0208 14.0407 38.0208L18.7487 33.3333h41.248L35.9353 38.0208C36.9352 39.0208 38.2893 39.5833 39.6851 39.5833C42.9349 39.5833 45.4139 36.7291 44.9556 33.5208ZM22.9152 22.9166H18.7487V27.0833H16.6655V22.9166H12.4991V20.8333H16.6655V16.6666H18.7487V20.8333H22.9152V22.9166ZM31.248 20.8333C30.1023 20.8333 29.1648 19.8958 29.1648 18.75C29.1648 17.6041 30.1023 16.6666 31.248 16.6666C32.3938 16.6666 33.3313 17.6041 33.3313 18.75C33.3313 19.8958 32.3938 20.8333 31.248 20.8333ZM35.4145 27.0833C34.2687 27.0833 33.3313 26.1458 33.3313 25C33.3313 23.8541 34.2687 22.9166 35.4145 22.9166C36.5602 22.9166 37.4977 23.8541 37.4977 25C37.4977 26.1458 36.5602 27.0833 35.4145 27.0833Z" fill="#2A7AE4"/>
</g>
<path d="M128.081 32C126.664 33.4167 125.014 34.125 123.131 34.125C121.964 34.125 120.864 33.8917 119.831 33.425C118.814 32.9583 117.923 32.3167 117.156 31.5C116.406 30.6833 115.806 29.725 115.356 28.625C114.923 27.5083 114.706 26.3083 114.706 25.025C114.706 23.8083 114.923 22.6667 115.356 21.6C115.806 20.5167 116.415 19.575 117.181 18.775C117.965 17.9583 118.881 17.3167 119.931 16.85C120.981 16.3667 122.123 16.125 123.356 16.125C125.022 16.125 126.447 16.475 127.631 17.175C128.831 17.875 129.731 18.8167 130.331 20L127.756 21.9C127.306 21.0167 126.672 20.3417 125.856 19.875C125.056 19.4083 124.181 19.175 123.231 19.175C122.481 19.175 121.789 19.3333 121.156 19.65C120.539 19.9667 120.006 20.4 119.556 20.95C119.123 21.5 118.781 22.1333 118.531 22.85C118.298 23.5667 118.181 24.325 118.181 25.125C118.181 25.9583 118.315 26.7417 118.581 27.475C118.848 28.1917 119.214 28.8167 119.681 29.35C120.148 29.8833 120.698 30.3083 121.331 30.625C121.981 30.925 122.681 31.075 123.431 31.075C125.147 31.075 126.697 30.2667 128.081 28.65V27.4H124.506V24.875H130.93V34H128.081V32Z" fill="#464646"/>
<path d="M139.62 34.25C138.57 34.25 137.62 34.075 136.77 33.725C135.92 33.3583 135.195 32.8667 134.595 32.25C133.996 31.6333 133.529 30.9167 133.196 30.1C132.879 29.2833 132.721 28.425 132.721 27.525C132.721 26.5917 132.879 25.7167 133.196 24.9C133.512 24.0667 133.971 23.3417 134.57 22.725C135.17 22.0917 135.895 21.5917 136.745 21.225C137.612 20.8583 138.579 20.675 139.645 20.675C140.712 20.675 141.662 20.8583 142.495 21.225C143.345 21.5917 144.062 22.0833 144.645 22.7C145.245 23.3167 145.695 24.0333 145.995 24.85C146.312 25.6667 146.47 26.5167 146.47 27.4C146.47 27.6167 146.462 27.825 146.445 28.025C146.445 28.225 146.428 28.3917 146.395 28.525H136.27C136.32 29.0417 136.445 29.5 136.645 29.9C136.845 30.3 137.104 30.6417 137.42 30.925C137.737 31.2083 138.095 31.425 138.495 31.575C138.895 31.725 139.312 31.8 139.745 31.8C140.412 31.8 141.037 31.6417 141.62 31.325C142.22 30.9917 142.628 30.5583 142.845 30.025L145.72 30.825C145.237 31.825 144.462 32.65 143.395 33.3C142.345 33.9333 141.087 34.25 139.62 34.25ZM143.02 26.35C142.937 25.3667 142.57 24.5833 141.92 24C141.287 23.4 140.512 23.1 139.595 23.1C139.145 23.1 138.72 23.1833 138.32 23.35C137.937 23.5 137.595 23.7167 137.295 24C136.995 24.2833 136.745 24.625 136.545 25.025C136.362 25.425 136.254 25.8667 136.22 26.35H143.02Z" fill="#464646"/>
<path d="M154.585 34.25C153.535 34.25 152.585 34.075 151.735 33.725C150.885 33.3583 150.16 32.8667 149.56 32.25C148.961 31.6333 148.494 30.9167 148.161 30.1C147.844 29.2833 147.686 28.425 147.686 27.525C147.686 26.5917 147.844 25.7167 148.161 24.9C148.477 24.0667 148.936 23.3417 149.535 22.725C150.135 22.0917 150.86 21.5917 151.71 21.225C152.577 20.8583 153.544 20.675 154.61 20.675C155.677 20.675 156.627 20.8583 157.46 21.225C158.31 21.5917 159.027 22.0833 159.61 22.7C160.21 23.3167 160.66 24.0333 160.96 24.85C161.276 25.6667 161.435 26.5167 161.435 27.4C161.435 27.6167 161.426 27.825 161.41 28.025C161.41 28.225 161.393 28.3917 161.36 28.525H151.235C151.285 29.0417 151.41 29.5 151.61 29.9C151.81 30.3 152.069 30.6417 152.385 30.925C152.702 31.2083 153.06 31.425 153.46 31.575C153.86 31.725 154.277 31.8 154.71 31.8C155.377 31.8 156.002 31.6417 156.585 31.325C157.185 30.9917 157.593 30.5583 157.81 30.025L160.685 30.825C160.202 31.825 159.427 32.65 158.36 33.3C157.31 33.9333 156.052 34.25 154.585 34.25ZM157.985 26.35C157.902 25.3667 157.535 24.5833 156.885 24C156.252 23.4 155.477 23.1 154.56 23.1C154.11 23.1 153.685 23.1833 153.285 23.35C152.902 23.5 152.56 23.7167 152.26 24C151.96 24.2833 151.71 24.625 151.51 25.025C151.327 25.425 151.219 25.8667 151.185 26.35H157.985Z" fill="#464646"/>
<path d="M172.425 34L168.625 28.325L166.825 30.1V34H163.476V15.75H166.825V26.825L172.075 20.925H175.65L170.775 26.475L176 34H172.425Z" fill="#464646"/>
<path d="M56.7718 16.25H59.8216L66.5713 34H63.0215L61.3715 29.575H55.1719L53.547 34H49.9972L56.7718 16.25ZM60.7466 27.15L58.2967 20.175L55.7469 27.15H60.7466Z" fill="#2A7AE4"/>
<path d="M68.168 15.75H71.5178V29.8C71.5178 30.2833 71.6345 30.6583 71.8678 30.925C72.1011 31.1917 72.4345 31.325 72.8678 31.325C73.0678 31.325 73.2844 31.2917 73.5177 31.225C73.7677 31.1583 74.001 31.075 74.2177 30.975L74.6677 33.525C74.2177 33.7417 73.6927 33.9083 73.0928 34.025C72.4928 34.1417 71.9512 34.2 71.4678 34.2C70.4179 34.2 69.6013 33.925 69.018 33.375C68.4514 32.8083 68.168 32.0083 68.168 30.975V15.75Z" fill="#2A7AE4"/>
<path d="M80.1269 34.25C78.777 34.25 77.7521 33.8167 77.0521 32.95C76.3521 32.0833 76.0022 30.8 76.0022 29.1V20.9H79.352V28.375C79.352 30.3917 80.0769 31.4 81.5268 31.4C82.1768 31.4 82.8018 31.2083 83.4017 30.825C84.0184 30.425 84.5183 29.825 84.9017 29.025V20.9H88.2515V30.15C88.2515 30.5 88.3098 30.75 88.4265 30.9C88.5598 31.05 88.7681 31.1333 89.0514 31.15V34C88.7181 34.0667 88.4348 34.1083 88.2015 34.125C87.9848 34.1417 87.7848 34.15 87.6015 34.15C87.0015 34.15 86.5099 34.0167 86.1266 33.75C85.7599 33.4667 85.5433 33.0833 85.4766 32.6L85.4016 31.55C84.8183 32.45 84.0684 33.125 83.1518 33.575C82.2351 34.025 81.2269 34.25 80.1269 34.25Z" fill="#2A7AE4"/>
<path d="M99.3799 23.8C98.3633 23.8167 97.4551 24.0167 96.6551 24.4C95.8551 24.7667 95.2802 25.325 94.9302 26.075V34H91.5804V20.9H94.6552V23.7C94.8885 23.25 95.1635 22.85 95.4802 22.5C95.7968 22.1333 96.1385 21.8167 96.5051 21.55C96.8718 21.2833 97.2384 21.0833 97.605 20.95C97.9884 20.8 98.355 20.725 98.705 20.725C98.8883 20.725 99.0216 20.725 99.105 20.725C99.205 20.725 99.2966 20.7333 99.3799 20.75V23.8Z" fill="#2A7AE4"/>
<path d="M104.652 34.25C104.018 34.25 103.427 34.15 102.877 33.95C102.327 33.7333 101.852 33.4417 101.452 33.075C101.052 32.6917 100.735 32.25 100.502 31.75C100.285 31.25 100.177 30.7 100.177 30.1C100.177 29.4833 100.31 28.9167 100.577 28.4C100.86 27.8667 101.244 27.4167 101.727 27.05C102.227 26.6833 102.818 26.4 103.502 26.2C104.185 25.9833 104.935 25.875 105.752 25.875C106.335 25.875 106.902 25.925 107.452 26.025C108.018 26.125 108.518 26.2667 108.951 26.45V25.7C108.951 24.8333 108.701 24.1667 108.202 23.7C107.718 23.2333 106.993 23 106.027 23C105.327 23 104.643 23.125 103.977 23.375C103.31 23.625 102.627 23.9917 101.927 24.475L100.902 22.35C102.585 21.2333 104.402 20.675 106.352 20.675C108.235 20.675 109.693 21.1417 110.726 22.075C111.776 22.9917 112.301 24.325 112.301 26.075V30.15C112.301 30.5 112.36 30.75 112.476 30.9C112.61 31.05 112.818 31.1333 113.101 31.15V34C112.535 34.1167 112.043 34.175 111.626 34.175C110.993 34.175 110.501 34.0333 110.151 33.75C109.818 33.4667 109.61 33.0917 109.526 32.625L109.451 31.9C108.868 32.6667 108.16 33.25 107.327 33.65C106.493 34.05 105.602 34.25 104.652 34.25ZM105.602 31.8C106.168 31.8 106.702 31.7 107.202 31.5C107.718 31.3 108.118 31.0333 108.402 30.7C108.768 30.4167 108.951 30.1 108.951 29.75V28.25C108.551 28.1 108.118 27.9833 107.652 27.9C107.185 27.8 106.735 27.75 106.302 27.75C105.435 27.75 104.727 27.95 104.177 28.35C103.627 28.7333 103.352 29.225 103.352 29.825C103.352 30.3917 103.568 30.8667 104.002 31.25C104.435 31.6167 104.968 31.8 105.602 31.8Z" fill="#2A7AE4"/>
<defs>
<clipPath id="clip0_1_200">
<rect width="49.9972" height="50" fill="white"/>
</clipPath>
</defs>
</svg>
